<svg width="13" height="20" viewBox="0 0 13 20" fill="none" xmlns="http://www.w3.org/2000/svg">
<path d="M2.20179 19.0909V19.9875H0.5125V19.0909C0.5125 16.9864 0.926492 15.2806 1.75342 13.9726C2.58126 12.6631 3.72333 11.342 5.17987 10.0092L5.18995 10L5.17987 9.99078C3.72333 8.658 2.58126 7.33686 1.75342 6.02741C0.926492 4.7194 0.5125 3.01361 0.5125 0.909091V0.0125H2.20179V0.909091C2.20179 1.07593 2.20536 1.23144 2.21252 1.37562C2.21967 1.51975 2.2304 1.66767 2.2447 1.81936L2.24577 1.83068H2.25714H10.7429H10.7542L10.7553 1.81936C10.7696 1.66767 10.7803 1.51975 10.7875 1.37562C10.7946 1.23144 10.7982 1.07593 10.7982 0.909091V0.0125H12.4875V0.909091C12.4875 3.01361 12.0735 4.7194 11.2466 6.02741C10.4187 7.33686 9.27667 8.658 7.82013 9.99078L7.81006 10L7.82013 10.0092C9.27667 11.342 10.4187 12.6631 11.2466 13.9726C12.0735 15.2806 12.4875 16.9864 12.4875 19.0909V19.9875H10.7982V19.0909C10.7982 18.9241 10.7946 18.7686 10.7875 18.6244C10.7803 18.4802 10.7696 18.3323 10.7553 18.1806L10.7542 18.1693H10.7429H2.25714H2.24577L2.2447 18.1806C2.2304 18.3323 2.21967 18.4802 2.21252 18.6244C2.20536 18.7686 2.20179 18.9241 2.20179 19.0909ZM3.44664 5.46132L3.43777 5.46705H3.45714H9.54286V5.4776L9.55336 5.46132C9.73935 5.17301 9.90034 4.88465 10.0363 4.59624C10.1723 4.30783 10.2975 3.98916 10.4119 3.64026L10.4173 3.62386H10.4H2.6H2.5825L2.58818 3.64042C2.70259 3.97411 2.82774 4.2889 2.96364 4.58476C3.09962 4.88078 3.26062 5.17297 3.44664 5.46132ZM6.49163 8.82747L6.5 8.83501L6.50837 8.82747C6.79416 8.56982 7.07281 8.31217 7.34432 8.05452C7.61591 7.7968 7.87321 7.53906 8.11624 7.2813L8.13611 7.26023H8.10714H4.89286H4.86389L4.88376 7.2813C5.12679 7.53906 5.38409 7.7968 5.65568 8.05452C5.92719 8.31217 6.20584 8.56982 6.49163 8.82747ZM4.88376 12.7187L4.86389 12.7398H4.89286H8.10714H8.13611L8.11624 12.7187C7.87321 12.4609 7.61591 12.2032 7.34432 11.9455C7.07281 11.6878 6.79416 11.4302 6.50837 11.1725L6.5 11.165L6.49163 11.1725C6.20584 11.4302 5.92719 11.6878 5.65568 11.9455C5.38409 12.2032 5.12679 12.4609 4.88376 12.7187ZM2.58812 16.3597L2.58275 16.3761H2.6H10.4H10.4175L10.4118 16.3596C10.2974 16.0259 10.1723 15.7111 10.0364 15.4152C9.90038 15.1192 9.73938 14.827 9.55336 14.5387L9.56223 14.533H9.54286H3.45714V14.5224L3.44664 14.5387C3.26065 14.827 3.09966 15.1153 2.96369 15.4038C2.82773 15.6922 2.70255 16.0108 2.58812 16.3597Z" fill="#18BCE5" stroke="#18BCE5" stroke-width="0.025"/>
</svg>
